<mxfile host="app.diagrams.net" modified="2024-07-02T14:47:52.497Z" agent="Mozilla/5.0 (Macintosh; Intel Mac OS X 10_15_7) AppleWebKit/605.1.15 (KHTML, like Gecko) Version/17.5 Safari/605.1.15" etag="XYIRIU81cxBPnRMeFOuL" version="24.6.4" type="github">
  <diagram name="Page-1" id="qZ5dJKdM5LjWcd1a5T0B">
    <mxGraphModel dx="2715" dy="1258" grid="1" gridSize="10" guides="1" tooltips="1" connect="1" arrows="1" fold="1" page="1" pageScale="1" pageWidth="850" pageHeight="1100" math="0" shadow="0">
      <root>
        <mxCell id="0" />
        <mxCell id="1" parent="0" />
        <mxCell id="E3wYF99wlfHokzd-2c9a-23" style="edgeStyle=orthogonalEdgeStyle;rounded=0;orthogonalLoop=1;jettySize=auto;html=1;entryX=0.5;entryY=0;entryDx=0;entryDy=0;" edge="1" parent="1" source="E3wYF99wlfHokzd-2c9a-1" target="E3wYF99wlfHokzd-2c9a-21">
          <mxGeometry relative="1" as="geometry">
            <Array as="points">
              <mxPoint x="460" y="190" />
              <mxPoint x="100" y="190" />
            </Array>
          </mxGeometry>
        </mxCell>
        <mxCell id="E3wYF99wlfHokzd-2c9a-31" value="" style="edgeStyle=orthogonalEdgeStyle;rounded=0;orthogonalLoop=1;jettySize=auto;html=1;" edge="1" parent="1" source="E3wYF99wlfHokzd-2c9a-1" target="E3wYF99wlfHokzd-2c9a-9">
          <mxGeometry relative="1" as="geometry">
            <Array as="points">
              <mxPoint x="460" y="190" />
            </Array>
          </mxGeometry>
        </mxCell>
        <mxCell id="E3wYF99wlfHokzd-2c9a-34" style="edgeStyle=orthogonalEdgeStyle;rounded=0;orthogonalLoop=1;jettySize=auto;html=1;" edge="1" parent="1" source="E3wYF99wlfHokzd-2c9a-1" target="E3wYF99wlfHokzd-2c9a-3">
          <mxGeometry relative="1" as="geometry" />
        </mxCell>
        <mxCell id="E3wYF99wlfHokzd-2c9a-1" value="Разбить строку на подстроки" style="rounded=0;whiteSpace=wrap;html=1;" vertex="1" parent="1">
          <mxGeometry x="400" y="10" width="120" height="60" as="geometry" />
        </mxCell>
        <mxCell id="E3wYF99wlfHokzd-2c9a-82" style="edgeStyle=orthogonalEdgeStyle;rounded=0;orthogonalLoop=1;jettySize=auto;html=1;entryX=0.5;entryY=0;entryDx=0;entryDy=0;" edge="1" parent="1" source="E3wYF99wlfHokzd-2c9a-3" target="E3wYF99wlfHokzd-2c9a-80">
          <mxGeometry relative="1" as="geometry" />
        </mxCell>
        <mxCell id="E3wYF99wlfHokzd-2c9a-3" value="&lt;font style=&quot;font-size: 8px;&quot;&gt;Подстрока в одинарных кавычках:&amp;nbsp;&lt;/font&gt;&lt;div&gt;&lt;span style=&quot;font-size: 8px;&quot;&gt;начало цикла&amp;nbsp;&lt;/span&gt;&lt;/div&gt;" style="rounded=0;whiteSpace=wrap;html=1;" vertex="1" parent="1">
          <mxGeometry x="400" y="220" width="120" height="80" as="geometry" />
        </mxCell>
        <mxCell id="E3wYF99wlfHokzd-2c9a-49" style="edgeStyle=orthogonalEdgeStyle;rounded=0;orthogonalLoop=1;jettySize=auto;html=1;entryX=0;entryY=0.5;entryDx=0;entryDy=0;" edge="1" parent="1" source="E3wYF99wlfHokzd-2c9a-9" target="E3wYF99wlfHokzd-2c9a-47">
          <mxGeometry relative="1" as="geometry" />
        </mxCell>
        <mxCell id="E3wYF99wlfHokzd-2c9a-53" style="edgeStyle=orthogonalEdgeStyle;rounded=0;orthogonalLoop=1;jettySize=auto;html=1;entryX=0;entryY=0.5;entryDx=0;entryDy=0;" edge="1" parent="1" source="E3wYF99wlfHokzd-2c9a-9" target="E3wYF99wlfHokzd-2c9a-50">
          <mxGeometry relative="1" as="geometry" />
        </mxCell>
        <mxCell id="E3wYF99wlfHokzd-2c9a-60" style="edgeStyle=orthogonalEdgeStyle;rounded=0;orthogonalLoop=1;jettySize=auto;html=1;entryX=0;entryY=0.5;entryDx=0;entryDy=0;" edge="1" parent="1" source="E3wYF99wlfHokzd-2c9a-9" target="E3wYF99wlfHokzd-2c9a-54">
          <mxGeometry relative="1" as="geometry" />
        </mxCell>
        <mxCell id="E3wYF99wlfHokzd-2c9a-9" value="&lt;font style=&quot;font-size: 11px;&quot;&gt;Подстрока в двойных кавычках:&lt;/font&gt;&lt;div style=&quot;font-size: 11px;&quot;&gt;&lt;font style=&quot;font-size: 11px;&quot;&gt;Анализ специальных символов, подстановка переменных, конкатенация&amp;nbsp;&lt;/font&gt;&lt;/div&gt;" style="rounded=0;whiteSpace=wrap;html=1;" vertex="1" parent="1">
          <mxGeometry x="620" y="220" width="170" height="100" as="geometry" />
        </mxCell>
        <mxCell id="E3wYF99wlfHokzd-2c9a-11" value="Прикидка алгоритма деления на подмножества" style="swimlane;fontStyle=0;childLayout=stackLayout;horizontal=1;startSize=30;horizontalStack=0;resizeParent=1;resizeParentMax=0;resizeLast=0;collapsible=1;marginBottom=0;whiteSpace=wrap;html=1;" vertex="1" parent="1">
          <mxGeometry width="260" height="150" as="geometry" />
        </mxCell>
        <mxCell id="E3wYF99wlfHokzd-2c9a-13" value="&lt;div&gt;delimiter == &#39; or &quot; or space&lt;/div&gt;while (str[i] != delimeter&lt;span style=&quot;white-space: pre;&quot;&gt; and str[i+1] != space&lt;/span&gt;)&lt;div&gt;&lt;span style=&quot;white-space: pre;&quot;&gt;&#x9;copy str to new_str&lt;/span&gt;&lt;br&gt;&lt;/div&gt;&lt;div&gt;&lt;span style=&quot;white-space: pre;&quot;&gt;&lt;span style=&quot;white-space: pre;&quot;&gt;&#x9;return new_str;&lt;/span&gt;&lt;br&gt;&lt;/span&gt;&lt;/div&gt;" style="text;strokeColor=none;fillColor=none;align=left;verticalAlign=middle;spacingLeft=4;spacingRight=4;overflow=hidden;points=[[0,0.5],[1,0.5]];portConstraint=eastwest;rotatable=0;whiteSpace=wrap;html=1;" vertex="1" parent="E3wYF99wlfHokzd-2c9a-11">
          <mxGeometry y="30" width="260" height="120" as="geometry" />
        </mxCell>
        <mxCell id="E3wYF99wlfHokzd-2c9a-15" value="подстроки храним в one-link list?" style="text;strokeColor=none;fillColor=none;align=left;verticalAlign=middle;spacingLeft=4;spacingRight=4;overflow=hidden;points=[[0,0.5],[1,0.5]];portConstraint=eastwest;rotatable=0;whiteSpace=wrap;html=1;" vertex="1" parent="1">
          <mxGeometry x="260" width="120" height="30" as="geometry" />
        </mxCell>
        <mxCell id="E3wYF99wlfHokzd-2c9a-26" style="edgeStyle=orthogonalEdgeStyle;rounded=0;orthogonalLoop=1;jettySize=auto;html=1;entryX=0.5;entryY=0;entryDx=0;entryDy=0;" edge="1" parent="1" source="E3wYF99wlfHokzd-2c9a-21" target="E3wYF99wlfHokzd-2c9a-25">
          <mxGeometry relative="1" as="geometry" />
        </mxCell>
        <mxCell id="E3wYF99wlfHokzd-2c9a-30" style="edgeStyle=orthogonalEdgeStyle;rounded=0;orthogonalLoop=1;jettySize=auto;html=1;entryX=0.5;entryY=0;entryDx=0;entryDy=0;" edge="1" parent="1" source="E3wYF99wlfHokzd-2c9a-21" target="E3wYF99wlfHokzd-2c9a-29">
          <mxGeometry relative="1" as="geometry" />
        </mxCell>
        <mxCell id="E3wYF99wlfHokzd-2c9a-21" value="Подстрока без кавычек&lt;div&gt;начало цикла&lt;/div&gt;" style="rounded=0;whiteSpace=wrap;html=1;" vertex="1" parent="1">
          <mxGeometry x="40" y="220" width="120" height="60" as="geometry" />
        </mxCell>
        <mxCell id="E3wYF99wlfHokzd-2c9a-28" style="edgeStyle=orthogonalEdgeStyle;rounded=0;orthogonalLoop=1;jettySize=auto;html=1;" edge="1" parent="1" source="E3wYF99wlfHokzd-2c9a-25" target="E3wYF99wlfHokzd-2c9a-27">
          <mxGeometry relative="1" as="geometry" />
        </mxCell>
        <mxCell id="E3wYF99wlfHokzd-2c9a-25" value="Подстрока является редиректом/пайпом или другим спец символом" style="rounded=0;whiteSpace=wrap;html=1;" vertex="1" parent="1">
          <mxGeometry x="-50" y="330" width="120" height="60" as="geometry" />
        </mxCell>
        <mxCell id="E3wYF99wlfHokzd-2c9a-27" value="&lt;div&gt;Если спец символ допустим - заносим в структуру исполняемой команды информацию о ее поведении&lt;/div&gt;" style="rounded=0;whiteSpace=wrap;html=1;" vertex="1" parent="1">
          <mxGeometry x="-60" y="420" width="140" height="110" as="geometry" />
        </mxCell>
        <mxCell id="E3wYF99wlfHokzd-2c9a-29" value="Подстрока состоит из обычных символов:&lt;div&gt;Копируем строку до первого пробельного символа&lt;/div&gt;" style="rounded=0;whiteSpace=wrap;html=1;" vertex="1" parent="1">
          <mxGeometry x="110" y="330" width="170" height="70" as="geometry" />
        </mxCell>
        <mxCell id="E3wYF99wlfHokzd-2c9a-42" value="первая строка обрабатывается с доп ограничениями" style="text;strokeColor=none;fillColor=none;align=left;verticalAlign=middle;spacingLeft=4;spacingRight=4;overflow=hidden;points=[[0,0.5],[1,0.5]];portConstraint=eastwest;rotatable=0;whiteSpace=wrap;html=1;" vertex="1" parent="1">
          <mxGeometry x="260" y="30" width="120" height="60" as="geometry" />
        </mxCell>
        <mxCell id="E3wYF99wlfHokzd-2c9a-43" value="Алгоритм подстановки" style="swimlane;fontStyle=0;childLayout=stackLayout;horizontal=1;startSize=30;horizontalStack=0;resizeParent=1;resizeParentMax=0;resizeLast=0;collapsible=1;marginBottom=0;whiteSpace=wrap;html=1;" vertex="1" parent="1">
          <mxGeometry x="-400" width="380" height="280" as="geometry" />
        </mxCell>
        <mxCell id="E3wYF99wlfHokzd-2c9a-44" value="bool flag = 0;" style="text;strokeColor=none;fillColor=none;align=left;verticalAlign=middle;spacingLeft=4;spacingRight=4;overflow=hidden;points=[[0,0.5],[1,0.5]];portConstraint=eastwest;rotatable=0;whiteSpace=wrap;html=1;" vertex="1" parent="E3wYF99wlfHokzd-2c9a-43">
          <mxGeometry y="30" width="380" height="250" as="geometry" />
        </mxCell>
        <mxCell id="E3wYF99wlfHokzd-2c9a-47" value="Символ является \ :&lt;div&gt;вызов функции обработки \&lt;/div&gt;&lt;div&gt;возврат к началу цикла&amp;nbsp;&lt;/div&gt;" style="rounded=0;whiteSpace=wrap;html=1;" vertex="1" parent="1">
          <mxGeometry x="740" y="360" width="170" height="80" as="geometry" />
        </mxCell>
        <mxCell id="E3wYF99wlfHokzd-2c9a-52" style="edgeStyle=orthogonalEdgeStyle;rounded=0;orthogonalLoop=1;jettySize=auto;html=1;entryX=0;entryY=0.5;entryDx=0;entryDy=0;" edge="1" parent="1" source="E3wYF99wlfHokzd-2c9a-50" target="E3wYF99wlfHokzd-2c9a-51">
          <mxGeometry relative="1" as="geometry" />
        </mxCell>
        <mxCell id="E3wYF99wlfHokzd-2c9a-50" value="Символ является $ :&lt;div&gt;читаем строку до пробела или спец символа&lt;/div&gt;" style="rounded=0;whiteSpace=wrap;html=1;" vertex="1" parent="1">
          <mxGeometry x="740" y="470" width="170" height="80" as="geometry" />
        </mxCell>
        <mxCell id="E3wYF99wlfHokzd-2c9a-51" value="Ищем переменную в таблице и подставляем в новую строку" style="whiteSpace=wrap;html=1;" vertex="1" parent="1">
          <mxGeometry x="970" y="480" width="120" height="60" as="geometry" />
        </mxCell>
        <mxCell id="E3wYF99wlfHokzd-2c9a-61" style="edgeStyle=orthogonalEdgeStyle;rounded=0;orthogonalLoop=1;jettySize=auto;html=1;entryX=0;entryY=0.5;entryDx=0;entryDy=0;" edge="1" parent="1" source="E3wYF99wlfHokzd-2c9a-54" target="E3wYF99wlfHokzd-2c9a-56">
          <mxGeometry relative="1" as="geometry" />
        </mxCell>
        <mxCell id="E3wYF99wlfHokzd-2c9a-62" style="edgeStyle=orthogonalEdgeStyle;rounded=0;orthogonalLoop=1;jettySize=auto;html=1;entryX=0;entryY=0.5;entryDx=0;entryDy=0;" edge="1" parent="1" source="E3wYF99wlfHokzd-2c9a-54" target="E3wYF99wlfHokzd-2c9a-58">
          <mxGeometry relative="1" as="geometry" />
        </mxCell>
        <mxCell id="E3wYF99wlfHokzd-2c9a-54" value="Символ является &quot; :" style="whiteSpace=wrap;html=1;" vertex="1" parent="1">
          <mxGeometry x="740" y="640" width="170" height="60" as="geometry" />
        </mxCell>
        <mxCell id="E3wYF99wlfHokzd-2c9a-63" style="edgeStyle=orthogonalEdgeStyle;rounded=0;orthogonalLoop=1;jettySize=auto;html=1;exitX=1;exitY=0.5;exitDx=0;exitDy=0;entryX=1;entryY=0.5;entryDx=0;entryDy=0;" edge="1" parent="1" source="E3wYF99wlfHokzd-2c9a-64" target="E3wYF99wlfHokzd-2c9a-59">
          <mxGeometry relative="1" as="geometry">
            <mxPoint x="1320" y="600.0000000000002" as="sourcePoint" />
            <mxPoint x="840" y="130" as="targetPoint" />
            <Array as="points">
              <mxPoint x="1390" y="550" />
              <mxPoint x="1390" y="130" />
            </Array>
          </mxGeometry>
        </mxCell>
        <mxCell id="E3wYF99wlfHokzd-2c9a-73" style="edgeStyle=orthogonalEdgeStyle;rounded=0;orthogonalLoop=1;jettySize=auto;html=1;entryX=0;entryY=0.5;entryDx=0;entryDy=0;" edge="1" parent="1" source="E3wYF99wlfHokzd-2c9a-56" target="E3wYF99wlfHokzd-2c9a-64">
          <mxGeometry relative="1" as="geometry" />
        </mxCell>
        <mxCell id="E3wYF99wlfHokzd-2c9a-74" style="edgeStyle=orthogonalEdgeStyle;rounded=0;orthogonalLoop=1;jettySize=auto;html=1;entryX=0;entryY=0.5;entryDx=0;entryDy=0;" edge="1" parent="1" source="E3wYF99wlfHokzd-2c9a-56" target="E3wYF99wlfHokzd-2c9a-72">
          <mxGeometry relative="1" as="geometry" />
        </mxCell>
        <mxCell id="E3wYF99wlfHokzd-2c9a-56" value="Кавычки не были закрыты:&lt;div&gt;закрываем кавычки&lt;/div&gt;&lt;div&gt;присоединяем строку&lt;/div&gt;" style="whiteSpace=wrap;html=1;" vertex="1" parent="1">
          <mxGeometry x="970" y="560" width="160" height="80" as="geometry" />
        </mxCell>
        <mxCell id="E3wYF99wlfHokzd-2c9a-57" style="edgeStyle=orthogonalEdgeStyle;rounded=0;orthogonalLoop=1;jettySize=auto;html=1;entryX=1.006;entryY=0.36;entryDx=0;entryDy=0;entryPerimeter=0;" edge="1" parent="1" source="E3wYF99wlfHokzd-2c9a-47" target="E3wYF99wlfHokzd-2c9a-9">
          <mxGeometry relative="1" as="geometry" />
        </mxCell>
        <mxCell id="E3wYF99wlfHokzd-2c9a-58" value="Кавычки закрыты:&lt;div&gt;Открываем кавычки&lt;/div&gt;&lt;div&gt;устанавливаем delimeter&lt;/div&gt;" style="whiteSpace=wrap;html=1;" vertex="1" parent="1">
          <mxGeometry x="970" y="770" width="160" height="90" as="geometry" />
        </mxCell>
        <mxCell id="E3wYF99wlfHokzd-2c9a-59" value="Начало цикла обработки подстроки" style="whiteSpace=wrap;html=1;" vertex="1" parent="1">
          <mxGeometry x="400" y="100" width="120" height="60" as="geometry" />
        </mxCell>
        <mxCell id="E3wYF99wlfHokzd-2c9a-64" value="Строка не закончилась:&lt;div&gt;Возврат к началу цикла&lt;/div&gt;" style="whiteSpace=wrap;html=1;" vertex="1" parent="1">
          <mxGeometry x="1200" y="520" width="120" height="60" as="geometry" />
        </mxCell>
        <mxCell id="E3wYF99wlfHokzd-2c9a-72" value="Конец строки:&lt;div&gt;Успех!&lt;br&gt;&lt;div&gt;Выход из цикла&lt;/div&gt;&lt;/div&gt;" style="whiteSpace=wrap;html=1;fontColor=#00CC00;" vertex="1" parent="1">
          <mxGeometry x="1200" y="620" width="120" height="60" as="geometry" />
        </mxCell>
        <mxCell id="E3wYF99wlfHokzd-2c9a-75" style="edgeStyle=orthogonalEdgeStyle;rounded=0;orthogonalLoop=1;jettySize=auto;html=1;entryX=0;entryY=0.5;entryDx=0;entryDy=0;" edge="1" parent="1" target="E3wYF99wlfHokzd-2c9a-77">
          <mxGeometry relative="1" as="geometry">
            <mxPoint x="1130" y="815" as="sourcePoint" />
          </mxGeometry>
        </mxCell>
        <mxCell id="E3wYF99wlfHokzd-2c9a-76" style="edgeStyle=orthogonalEdgeStyle;rounded=0;orthogonalLoop=1;jettySize=auto;html=1;entryX=0;entryY=0.5;entryDx=0;entryDy=0;" edge="1" parent="1" target="E3wYF99wlfHokzd-2c9a-78">
          <mxGeometry relative="1" as="geometry">
            <mxPoint x="1130" y="815" as="sourcePoint" />
          </mxGeometry>
        </mxCell>
        <mxCell id="E3wYF99wlfHokzd-2c9a-77" value="Строка не закончилась:&lt;div&gt;Возврат к началу цикла&lt;/div&gt;" style="whiteSpace=wrap;html=1;" vertex="1" parent="1">
          <mxGeometry x="1200" y="735" width="120" height="60" as="geometry" />
        </mxCell>
        <mxCell id="E3wYF99wlfHokzd-2c9a-78" value="Конец строки:&lt;div&gt;Ошибка!&lt;br&gt;&lt;div&gt;Выход из цикла&lt;/div&gt;&lt;/div&gt;" style="whiteSpace=wrap;html=1;fontColor=#FF9999;labelBackgroundColor=none;" vertex="1" parent="1">
          <mxGeometry x="1200" y="835" width="120" height="60" as="geometry" />
        </mxCell>
        <mxCell id="E3wYF99wlfHokzd-2c9a-85" style="edgeStyle=orthogonalEdgeStyle;rounded=0;orthogonalLoop=1;jettySize=auto;html=1;entryX=1;entryY=0.5;entryDx=0;entryDy=0;" edge="1" parent="1" source="E3wYF99wlfHokzd-2c9a-80" target="E3wYF99wlfHokzd-2c9a-3">
          <mxGeometry relative="1" as="geometry">
            <Array as="points">
              <mxPoint x="590" y="380" />
              <mxPoint x="590" y="260" />
            </Array>
          </mxGeometry>
        </mxCell>
        <mxCell id="E3wYF99wlfHokzd-2c9a-87" style="edgeStyle=orthogonalEdgeStyle;rounded=0;orthogonalLoop=1;jettySize=auto;html=1;entryX=0.5;entryY=0;entryDx=0;entryDy=0;" edge="1" parent="1" source="E3wYF99wlfHokzd-2c9a-80" target="E3wYF99wlfHokzd-2c9a-86">
          <mxGeometry relative="1" as="geometry" />
        </mxCell>
        <mxCell id="E3wYF99wlfHokzd-2c9a-80" value="Символ является \ :&lt;div&gt;вызов функции обработки \&lt;/div&gt;&lt;div&gt;возврат к началу цикла&amp;nbsp;&lt;/div&gt;" style="rounded=0;whiteSpace=wrap;html=1;" vertex="1" parent="1">
          <mxGeometry x="375" y="350" width="170" height="60" as="geometry" />
        </mxCell>
        <mxCell id="E3wYF99wlfHokzd-2c9a-83" style="edgeStyle=orthogonalEdgeStyle;rounded=0;orthogonalLoop=1;jettySize=auto;html=1;entryX=0.5;entryY=0;entryDx=0;entryDy=0;" edge="1" parent="1" target="E3wYF99wlfHokzd-2c9a-84">
          <mxGeometry relative="1" as="geometry">
            <mxPoint x="195" y="400" as="sourcePoint" />
          </mxGeometry>
        </mxCell>
        <mxCell id="E3wYF99wlfHokzd-2c9a-89" style="edgeStyle=orthogonalEdgeStyle;rounded=0;orthogonalLoop=1;jettySize=auto;html=1;entryX=1;entryY=0.5;entryDx=0;entryDy=0;" edge="1" parent="1" source="E3wYF99wlfHokzd-2c9a-84" target="E3wYF99wlfHokzd-2c9a-21">
          <mxGeometry relative="1" as="geometry">
            <Array as="points">
              <mxPoint x="320" y="480" />
              <mxPoint x="320" y="250" />
            </Array>
          </mxGeometry>
        </mxCell>
        <mxCell id="E3wYF99wlfHokzd-2c9a-84" value="Символ является \ :&lt;div&gt;вызов функции обработки \&lt;/div&gt;&lt;div&gt;возврат к началу цикла&amp;nbsp;&lt;/div&gt;" style="rounded=0;whiteSpace=wrap;html=1;" vertex="1" parent="1">
          <mxGeometry x="110" y="450" width="170" height="60" as="geometry" />
        </mxCell>
        <mxCell id="E3wYF99wlfHokzd-2c9a-88" style="edgeStyle=orthogonalEdgeStyle;rounded=0;orthogonalLoop=1;jettySize=auto;html=1;" edge="1" parent="1" source="E3wYF99wlfHokzd-2c9a-86">
          <mxGeometry relative="1" as="geometry">
            <mxPoint x="590" y="380" as="targetPoint" />
          </mxGeometry>
        </mxCell>
        <mxCell id="E3wYF99wlfHokzd-2c9a-86" value="Символ не является спец символом:&lt;div&gt;простое копирование&lt;/div&gt;&lt;div&gt;возврат к началу цикла&lt;/div&gt;" style="whiteSpace=wrap;html=1;" vertex="1" parent="1">
          <mxGeometry x="377.5" y="440" width="165" height="60" as="geometry" />
        </mxCell>
      </root>
    </mxGraphModel>
  </diagram>
</mxfile>
